<svg width="60" height="60" viewBox="0 0 60 60" fill="none" xmlns="http://www.w3.org/2000/svg">
<circle opacity="0.5" cx="30" cy="30" r="30" fill="#EDB91D" fill-opacity="0.5"/>
<path d="M45.3953 18.814L30.3953 13.814C30.1387 13.7285 29.8613 13.7285 29.6047 13.814L14.6047 18.814C14.3558 18.897 14.1393 19.0562 13.9859 19.269C13.8325 19.4819 13.75 19.7376 13.75 20V32.5C13.75 32.8315 13.8817 33.1494 14.1161 33.3839C14.3505 33.6183 14.6685 33.75 15 33.75C15.3315 33.75 15.6495 33.6183 15.8839 33.3839C16.1183 33.1494 16.25 32.8315 16.25 32.5V21.7343L21.4984 23.4828C20.104 25.7356 19.6606 28.4497 20.2655 31.0292C20.8705 33.6087 22.4744 35.8426 24.725 37.2406C21.9125 38.3437 19.4812 40.339 17.7031 43.0672C17.6106 43.2046 17.5464 43.3591 17.5142 43.5215C17.4819 43.684 17.4823 43.8513 17.5152 44.0136C17.5482 44.176 17.6131 44.3302 17.7061 44.4672C17.7992 44.6043 17.9186 44.7214 18.0573 44.8119C18.1961 44.9024 18.3515 44.9644 18.5144 44.9944C18.6773 45.0243 18.8446 45.0216 19.0064 44.9863C19.1683 44.951 19.3215 44.8839 19.4572 44.7889C19.5929 44.6939 19.7084 44.5728 19.7969 44.4328C22.1516 40.8203 25.8703 38.75 30 38.75C34.1297 38.75 37.8484 40.8203 40.2031 44.4328C40.3865 44.7053 40.6697 44.8947 40.9915 44.96C41.3134 45.0253 41.648 44.9614 41.9231 44.782C42.1982 44.6026 42.3916 44.3221 42.4616 44.0012C42.5315 43.6803 42.4723 43.3448 42.2969 43.0672C40.5187 40.339 38.0781 38.3437 35.275 37.2406C37.5235 35.8427 39.1258 33.6102 39.7307 31.0326C40.3356 28.455 39.8935 25.7428 38.5016 23.4906L45.3953 21.1937C45.6443 21.1108 45.8608 20.9516 46.0143 20.7388C46.1677 20.5259 46.2503 20.2702 46.2503 20.0078C46.2503 19.7454 46.1677 19.4896 46.0143 19.2768C45.8608 19.0639 45.6443 18.9048 45.3953 18.8218V18.814ZM37.5 28.75C37.5003 29.9357 37.2195 31.1046 36.6806 32.1608C36.1418 33.2169 35.3601 34.1303 34.3999 34.8259C33.4397 35.5215 32.3282 35.9795 31.1567 36.1624C29.9851 36.3452 28.7869 36.2477 27.6604 35.8778C26.5338 35.508 25.511 34.8762 24.6759 34.0345C23.8408 33.1928 23.2171 32.1651 22.8561 31.0357C22.4951 29.9063 22.407 28.7074 22.599 27.5373C22.7911 26.3673 23.2578 25.2594 23.9609 24.3047L29.6047 26.1797C29.8613 26.2652 30.1387 26.2652 30.3953 26.1797L36.0391 24.3047C36.9886 25.5922 37.5006 27.1501 37.5 28.75ZM30 23.6828L18.9531 20L30 16.3172L41.0469 20L30 23.6828Z" fill="#867060"/>
</svg>
