<svg width="88" height="88" viewBox="0 0 88 88" fill="none" xmlns="http://www.w3.org/2000/svg">
<g filter="url(#filter0_d_195_1357)">
<path d="M44.0003 6.66675C62.4103 6.66675 77.3337 21.5901 77.3337 40.0001C77.3337 58.4101 62.4103 73.3334 44.0003 73.3334C25.5903 73.3334 10.667 58.4101 10.667 40.0001C10.667 21.5901 25.5903 6.66675 44.0003 6.66675ZM44.0003 53.3334C43.1163 53.3334 42.2684 53.6846 41.6433 54.3097C41.0182 54.9348 40.667 55.7827 40.667 56.6667C40.667 57.5508 41.0182 58.3987 41.6433 59.0238C42.2684 59.6489 43.1163 60.0001 44.0003 60.0001C44.8844 60.0001 45.7322 59.6489 46.3573 59.0238C46.9825 58.3987 47.3337 57.5508 47.3337 56.6667C47.3337 55.7827 46.9825 54.9348 46.3573 54.3097C45.7322 53.6846 44.8844 53.3334 44.0003 53.3334ZM44.0003 21.6667C40.7956 21.6667 37.7222 22.9398 35.4561 25.2059C33.1901 27.4719 31.917 30.5454 31.917 33.7501C31.917 34.6341 32.2682 35.482 32.8933 36.1071C33.5184 36.7322 34.3663 37.0834 35.2503 37.0834C36.1344 37.0834 36.9822 36.7322 37.6073 36.1071C38.2325 35.482 38.5837 34.6341 38.5837 33.7501C38.5848 32.7669 38.8535 31.8025 39.3609 30.9604C39.8684 30.1182 40.5955 29.4301 41.4643 28.9698C42.3331 28.5095 43.3108 28.2943 44.2926 28.3474C45.2744 28.4004 46.2232 28.7197 47.0374 29.271C47.8515 29.8223 48.5002 30.5847 48.914 31.4766C49.3278 32.3686 49.491 33.3563 49.3861 34.3339C49.2812 35.3115 48.9123 36.2421 48.3187 37.026C47.7252 37.8098 46.9295 38.4174 46.017 38.7834C43.7637 39.6834 40.667 41.9901 40.667 45.8334V46.6667C40.667 47.5508 41.0182 48.3986 41.6433 49.0238C42.2684 49.6489 43.1163 50.0001 44.0003 50.0001C44.8844 50.0001 45.7322 49.6489 46.3573 49.0238C46.9825 48.3986 47.3337 47.5508 47.3337 46.6667C47.3337 45.8534 47.5003 45.4467 48.2037 45.1001L48.4937 44.9667C51.0964 43.9197 53.2538 41.9999 54.5961 39.5365C55.9384 37.073 56.382 34.2194 55.8507 31.4647C55.3195 28.71 53.8466 26.226 51.6845 24.4383C49.5224 22.6507 46.8057 21.6708 44.0003 21.6667Z" fill="#867060"/>
</g>
<defs>
<filter id="filter0_d_195_1357" x="-6" y="-6" width="100" height="100" filterUnits="userSpaceOnUse" color-interpolation-filters="sRGB">
<feFlood flood-opacity="0" result="BackgroundImageFix"/>
<feColorMatrix in="SourceAlpha" type="matrix" values="0 0 0 0 0 0 0 0 0 0 0 0 0 0 0 0 0 0 127 0" result="hardAlpha"/>
<feOffset dy="4"/>
<feGaussianBlur stdDeviation="5"/>
<feComposite in2="hardAlpha" operator="out"/>
<feColorMatrix type="matrix" values="0 0 0 0 0 0 0 0 0 0 0 0 0 0 0 0 0 0 0.25 0"/>
<feBlend mode="normal" in2="BackgroundImageFix" result="effect1_dropShadow_195_1357"/>
<feBlend mode="normal" in="SourceGraphic" in2="effect1_dropShadow_195_1357" result="shape"/>
</filter>
</defs>
</svg>
