<svg width="60" height="60" viewBox="0 0 60 60" fill="none" xmlns="http://www.w3.org/2000/svg">
<circle opacity="0.5" cx="30" cy="30" r="30" fill="#E6850F" fill-opacity="0.5"/>
<path d="M25 15H18.3333C17.4493 15 16.6014 15.3512 15.9763 15.9763C15.3512 16.6014 15 17.4493 15 18.3333V25M25 15H41.6667C42.5507 15 43.3986 15.3512 44.0237 15.9763C44.6488 16.6014 45 17.4493 45 18.3333V25M25 15V45M15 25V41.6667C15 42.5507 15.3512 43.3986 15.9763 44.0237C16.6014 44.6488 17.4493 45 18.3333 45H25M15 25H45M45 25V41.6667C45 42.5507 44.6488 43.3986 44.0237 44.0237C43.3986 44.6488 42.5507 45 41.6667 45H25" stroke="#867060" stroke-width="2.5" stroke-linecap="round" stroke-linejoin="round"/>
</svg>
